<svg width="73" height="73" viewBox="0 0 73 73" fill="none" xmlns="http://www.w3.org/2000/svg">
<g filter="url(#filter0_d_2_39)">
<circle cx="33.5" cy="31.5" r="30.5" fill="#00BBFF"/>
</g>
<g clip-path="url(#clip0_2_39)">
<path d="M24.715 32.8825C22.2942 32.8825 17.4525 34.335 17.4525 40.145C17.4525 45.955 22.2942 47.4075 24.715 47.4075H42.145C44.5659 47.4075 49.4075 45.955 49.4075 40.145C49.4075 34.335 44.5659 32.8825 42.145 32.8825" stroke="black" stroke-width="3" stroke-linecap="round" stroke-linejoin="round"/>
<path d="M33.43 31.43C35.8366 31.43 37.7875 29.4791 37.7875 27.0725C37.7875 24.6659 35.8366 22.715 33.43 22.715C31.0234 22.715 29.0725 24.6659 29.0725 27.0725C29.0725 29.4791 31.0234 31.43 33.43 31.43Z" stroke="black" stroke-width="3" stroke-linecap="round" stroke-linejoin="round"/>
<path d="M43.5975 27.0725H45.05" stroke="black" stroke-width="3" stroke-linecap="round" stroke-linejoin="round"/>
<path d="M33.43 16.905V15.4525" stroke="black" stroke-width="3" stroke-linecap="round" stroke-linejoin="round"/>
<path d="M42.8713 19.0837L41.4188 20.5362" stroke="black" stroke-width="3" stroke-linecap="round" stroke-linejoin="round"/>
<path d="M23.9887 19.0837L25.4412 20.5362" stroke="black" stroke-width="3" stroke-linecap="round" stroke-linejoin="round"/>
<path d="M21.81 27.0725H23.2625" stroke="black" stroke-width="3" stroke-linecap="round" stroke-linejoin="round"/>
</g>
<defs>
<filter id="filter0_d_2_39" x="0" y="0" width="73" height="73" filterUnits="userSpaceOnUse" color-interpolation-filters="sRGB">
<feFlood flood-opacity="0" result="BackgroundImageFix"/>
<feColorMatrix in="SourceAlpha" type="matrix" values="0 0 0 0 0 0 0 0 0 0 0 0 0 0 0 0 0 0 127 0" result="hardAlpha"/>
<feMorphology radius="2" operator="dilate" in="SourceAlpha" result="effect1_dropShadow_2_39"/>
<feOffset dx="3" dy="5"/>
<feGaussianBlur stdDeviation="2"/>
<feComposite in2="hardAlpha" operator="out"/>
<feColorMatrix type="matrix" values="0 0 0 0 0 0 0 0 0 0 0 0 0 0 0 0 0 0 0.25 0"/>
<feBlend mode="normal" in2="BackgroundImageFix" result="effect1_dropShadow_2_39"/>
<feBlend mode="normal" in="SourceGraphic" in2="effect1_dropShadow_2_39" result="shape"/>
</filter>
<clipPath id="clip0_2_39">
<rect width="34.86" height="34.86" fill="white" transform="translate(16 14)"/>
</clipPath>
</defs>
</svg>
