<svg width="73" height="73" viewBox="0 0 73 73" fill="none" xmlns="http://www.w3.org/2000/svg">
<g filter="url(#filter0_d_2_35)">
<circle cx="33.5" cy="31.5" r="30.5" fill="#00BBFF"/>
</g>
<g clip-path="url(#clip0_2_35)">
<path d="M39.3095 37.324L39.324 37.3079" stroke="black" stroke-width="3" stroke-linecap="round" stroke-linejoin="round"/>
<path d="M24.7857 37.324L24.8002 37.3079" stroke="black" stroke-width="3" stroke-linecap="round" stroke-linejoin="round"/>
<path d="M45.119 46.0238V35.8571V25.6905M45.119 25.6905H42.2143V16.9762H48.0238V25.6905H45.119Z" stroke="black" stroke-width="3" stroke-linecap="round" stroke-linejoin="round"/>
<path d="M39.3095 43.119H19.8476C19.3663 43.119 18.9762 42.7289 18.9762 42.2476V32.3714C18.9762 31.8901 19.3663 31.5 19.8476 31.5H39.3095" stroke="black" stroke-width="3" stroke-linecap="round" stroke-linejoin="round"/>
<path d="M36.4048 25.6905H24.7857M36.4048 16.9762H24.7857C21.5772 16.9762 18.9762 19.5772 18.9762 22.7857V25.6905" stroke="black" stroke-width="3" stroke-linecap="round" stroke-linejoin="round"/>
<path d="M21.1548 43.119V45.8786C21.1548 46.3599 21.5449 46.75 22.0262 46.75H26.0929C26.5741 46.75 26.9643 46.3599 26.9643 45.8786V43.119" stroke="black" stroke-width="3" stroke-linecap="round"/>
<path d="M37.131 43.119V45.8786C37.131 46.3599 37.5211 46.75 38.0024 46.75H39.3095" stroke="black" stroke-width="3" stroke-linecap="round"/>
</g>
<defs>
<filter id="filter0_d_2_35" x="0" y="0" width="73" height="73" filterUnits="userSpaceOnUse" color-interpolation-filters="sRGB">
<feFlood flood-opacity="0" result="BackgroundImageFix"/>
<feColorMatrix in="SourceAlpha" type="matrix" values="0 0 0 0 0 0 0 0 0 0 0 0 0 0 0 0 0 0 127 0" result="hardAlpha"/>
<feMorphology radius="2" operator="dilate" in="SourceAlpha" result="effect1_dropShadow_2_35"/>
<feOffset dx="3" dy="5"/>
<feGaussianBlur stdDeviation="2"/>
<feComposite in2="hardAlpha" operator="out"/>
<feColorMatrix type="matrix" values="0 0 0 0 0 0 0 0 0 0 0 0 0 0 0 0 0 0 0.25 0"/>
<feBlend mode="normal" in2="BackgroundImageFix" result="effect1_dropShadow_2_35"/>
<feBlend mode="normal" in="SourceGraphic" in2="effect1_dropShadow_2_35" result="shape"/>
</filter>
<clipPath id="clip0_2_35">
<rect width="34.8571" height="34.8571" fill="white" transform="translate(16.0714 14.0714)"/>
</clipPath>
</defs>
</svg>
