<svg width="73" height="73" viewBox="0 0 73 73" fill="none" xmlns="http://www.w3.org/2000/svg">
<g filter="url(#filter0_d_2_38)">
<circle cx="33.5" cy="31.5" r="30.5" fill="#00BBFF"/>
</g>
<path d="M20.3575 29.525C23.9637 29.525 26.6684 25.1675 26.6684 25.1675C26.6684 25.1675 29.373 29.525 32.9793 29.525C36.5854 29.525 40.1917 25.1675 40.1917 25.1675C40.1917 25.1675 43.7978 29.525 46.5025 29.525" stroke="black" stroke-width="3" stroke-linecap="round" stroke-linejoin="round"/>
<path d="M20.3575 39.6925C23.9637 39.6925 26.6684 35.335 26.6684 35.335C26.6684 35.335 29.373 39.6925 32.9793 39.6925C36.5854 39.6925 40.1917 35.335 40.1917 35.335C40.1917 35.335 43.7978 39.6925 46.5025 39.6925" stroke="black" stroke-width="3" stroke-linecap="round" stroke-linejoin="round"/>
<defs>
<filter id="filter0_d_2_38" x="0" y="0" width="73" height="73" filterUnits="userSpaceOnUse" color-interpolation-filters="sRGB">
<feFlood flood-opacity="0" result="BackgroundImageFix"/>
<feColorMatrix in="SourceAlpha" type="matrix" values="0 0 0 0 0 0 0 0 0 0 0 0 0 0 0 0 0 0 127 0" result="hardAlpha"/>
<feMorphology radius="2" operator="dilate" in="SourceAlpha" result="effect1_dropShadow_2_38"/>
<feOffset dx="3" dy="5"/>
<feGaussianBlur stdDeviation="2"/>
<feComposite in2="hardAlpha" operator="out"/>
<feColorMatrix type="matrix" values="0 0 0 0 0 0 0 0 0 0 0 0 0 0 0 0 0 0 0.25 0"/>
<feBlend mode="normal" in2="BackgroundImageFix" result="effect1_dropShadow_2_38"/>
<feBlend mode="normal" in="SourceGraphic" in2="effect1_dropShadow_2_38" result="shape"/>
</filter>
</defs>
</svg>
